<svg width="30" height="30" viewBox="0 0 30 30" fill="none" xmlns="http://www.w3.org/2000/svg">
<path d="M3.19 24.18H11.62C11.49 24.13 11.36 24.09 11.24 24.03C10.08 23.52 9.04 22.81 8.14 21.9C7.23 20.99 6.53 19.95 6.01 18.77C5.5 17.59 5.24001 16.35 5.24001 15.05C5.24001 13.75 5.5 12.49 6.01 11.27C6.52 10.05 7.23 8.99002 8.14 8.08002C10.03 6.19002 12.29 5.23999 14.93 5.23999C16.27 5.23999 17.54 5.48998 18.74 5.97998C19.94 6.46998 20.97 7.17002 21.84 8.08002C22.71 8.99002 23.39 10.05 23.91 11.27C24.42 12.49 24.68 13.75 24.68 15.05C24.68 16.35 24.42 17.59 23.91 18.77C23.4 19.95 22.71 21 21.84 21.9C20.97 22.81 19.93 23.52 18.71 24.03C18.58 24.09 18.44 24.13 18.31 24.18H26.85C27.66 23.15 28.32 22.02 28.85 20.79C29.62 18.98 30 17.07 30 15.06C30 13.05 29.62 11.06 28.85 9.21002C28.08 7.36002 27.01 5.75 25.63 4.37C24.25 2.99 22.64 1.92002 20.79 1.15002C18.94 0.380024 16.99 0 14.94 0C12.89 0 11.02 0.380024 9.21 1.15002C7.4 1.92002 5.8 2.99 4.43 4.37C3.05 5.75 1.97 7.36002 1.18 9.21002C0.39 11.06 0 13.01 0 15.06C0 17.11 0.39 18.98 1.18 20.79C1.72 22.02 2.39 23.15 3.2 24.18H3.19Z" fill="#0F0F0F"/>
<path d="M18.1217 24.1797H11.7617V29.6297H18.1217V24.1797Z" fill="#0F0F0F"/>
</svg>
