<svg width="147" height="31" viewBox="0 0 147 31" fill="none" xmlns="http://www.w3.org/2000/svg">
<g clip-path="url(#clip0_320_1528)">
<path d="M66.8789 24.6397V11.3997C66.8789 9.75969 66.3089 8.37969 65.1689 7.25969C64.0289 6.13969 62.6389 5.57969 60.9989 5.57969C59.3589 5.57969 57.9989 6.13969 56.7989 7.25969C55.6389 8.33969 55.0589 9.69969 55.0589 11.3397V24.6397H49.5989V11.3397C49.5989 9.65969 49.0389 8.29969 47.9189 7.25969C46.7189 6.13969 45.2989 5.57969 43.6589 5.57969C42.0189 5.57969 40.6989 6.13969 39.5789 7.25969C38.3789 8.45969 37.7789 9.87969 37.7789 11.5197V24.6397H32.3789V0.899687H37.7789V3.11969C38.4589 2.27969 39.3489 1.57969 40.4489 1.01969C41.5489 0.459687 42.6189 0.179688 43.6589 0.179688C45.4189 0.179688 47.0289 0.529687 48.4889 1.22969C49.9489 1.92969 51.2189 2.89969 52.2989 4.13969C53.3789 2.89969 54.6589 1.92969 56.1389 1.22969C57.6189 0.529687 59.2389 0.179688 60.9989 0.179688C62.5589 0.179688 64.0189 0.459687 65.3789 1.01969C66.7389 1.57969 67.9389 2.37969 68.9789 3.41969C70.0189 4.45969 70.8289 5.66969 71.4089 7.04969C71.9889 8.42969 72.2789 9.87969 72.2789 11.3997V24.6397H66.8789Z" fill="black"/>
<path d="M109.281 24.6397V11.3997C109.281 9.75969 108.711 8.37969 107.571 7.25969C106.431 6.13969 105.041 5.57969 103.401 5.57969C101.761 5.57969 100.401 6.13969 99.2012 7.25969C98.0412 8.33969 97.4613 9.69969 97.4613 11.3397V24.6397H92.0013V11.3397C92.0013 9.65969 91.4413 8.29969 90.3213 7.25969C89.1213 6.13969 87.7012 5.57969 86.0612 5.57969C84.4212 5.57969 83.1013 6.13969 81.9813 7.25969C80.7813 8.45969 80.1813 9.87969 80.1813 11.5197V24.6397H74.7812V0.899687H80.1813V3.11969C80.8613 2.27969 81.7512 1.57969 82.8512 1.01969C83.9513 0.459687 85.0212 0.179688 86.0612 0.179688C87.8212 0.179688 89.4313 0.529687 90.8913 1.22969C92.3512 1.92969 93.6212 2.89969 94.7012 4.13969C95.7812 2.89969 97.0613 1.92969 98.5413 1.22969C100.021 0.529687 101.641 0.179688 103.401 0.179688C104.961 0.179688 106.421 0.459687 107.781 1.01969C109.141 1.57969 110.341 2.37969 111.381 3.41969C112.421 4.45969 113.231 5.66969 113.811 7.04969C114.391 8.42969 114.681 9.87969 114.681 11.3997V24.6397H109.281Z" fill="black"/>
<path d="M3.24828 24.5602H11.8083C11.6783 24.5102 11.5483 24.4702 11.4183 24.4102C10.2383 23.8902 9.18828 23.1702 8.26828 22.2502C7.34828 21.3302 6.62828 20.2702 6.10828 19.0702C5.58828 17.8702 5.32828 16.6102 5.32828 15.2902C5.32828 13.9702 5.58828 12.6902 6.10828 11.4502C6.62828 10.2102 7.34828 9.13023 8.26828 8.21023C10.1883 6.29023 12.4883 5.33023 15.1683 5.33023C16.5283 5.33023 17.8183 5.58023 19.0383 6.08023C20.2583 6.58023 21.3083 7.29023 22.1883 8.21023C23.0683 9.13023 23.7683 10.2102 24.2883 11.4502C24.8083 12.6902 25.0683 13.9702 25.0683 15.2902C25.0683 16.6102 24.8083 17.8702 24.2883 19.0702C23.7683 20.2702 23.0683 21.3302 22.1883 22.2502C21.3083 23.1702 20.2483 23.8902 19.0083 24.4102C18.8783 24.4702 18.7383 24.5102 18.5983 24.5602H27.2683C28.0883 23.5102 28.7683 22.3602 29.2983 21.1102C30.0783 19.2702 30.4683 17.3302 30.4683 15.2902C30.4683 13.2502 30.0783 11.2302 29.2983 9.35023C28.5183 7.47023 27.4283 5.83023 26.0283 4.43023C24.6283 3.03023 22.9883 1.94023 21.1083 1.16023C19.2283 0.380234 17.2483 -0.00976562 15.1683 -0.00976562C13.0883 -0.00976562 11.1883 0.380234 9.34828 1.16023C7.50828 1.94023 5.88828 3.03023 4.48828 4.43023C3.08828 5.83023 1.98828 7.47023 1.18828 9.35023C0.388281 11.2302 -0.0117188 13.2102 -0.0117188 15.2902C-0.0117188 17.3702 0.388281 19.2702 1.18828 21.1102C1.72828 22.3602 2.41828 23.5102 3.23828 24.5602H3.24828Z" fill="black"/>
<path d="M18.4092 24.5605H11.9492V30.0905H18.4092V24.5605Z" fill="black"/>
<path d="M134.879 24.5602H128.629V30.0902H135.089V24.5602H143.599C144.089 23.9502 144.549 23.3102 144.969 22.6102L140.409 19.9102C138.879 22.2702 137.029 23.8202 134.879 24.5602Z" fill="black"/>
<path d="M142.39 4.62023C141.03 3.22023 139.42 2.14023 137.56 1.38023C135.7 0.620234 133.75 0.240234 131.71 0.240234C129.67 0.240234 127.72 0.620234 125.86 1.38023C124 2.14023 122.39 3.22023 121.03 4.62023C119.63 6.02023 118.54 7.65023 117.76 9.51023C116.98 11.3702 116.59 13.3202 116.59 15.3602C116.59 17.4002 116.98 19.3402 117.76 21.1802C118.28 22.4102 118.94 23.5402 119.74 24.5702H128.51C127.55 24.2402 126.65 23.7502 125.82 23.1002C124.9 22.3802 124.09 21.5002 123.39 20.4602C122.69 19.4202 122.34 18.4202 122.34 17.4602H146.63C146.75 16.6602 146.81 15.9002 146.81 15.1802C146.81 11.1802 145.33 7.66023 142.37 4.62023H142.39ZM122.36 12.8402C122.36 11.5202 122.79 10.2702 123.65 9.09023C124.51 7.91023 125.66 6.96023 127.1 6.24023C128.54 5.52023 130.08 5.16023 131.72 5.16023C133.36 5.16023 134.9 5.52023 136.34 6.24023C137.78 6.96023 138.93 7.91023 139.79 9.09023C140.65 10.2702 141.08 11.5202 141.08 12.8402H122.37H122.36Z" fill="black"/>
</g>
<defs>
<clipPath id="clip0_320_1528">
<rect width="146.83" height="30.09" fill="white"/>
</clipPath>
</defs>
</svg>
